# xmcd
#
# Track frame offsets:
# 150
# 23160
# 36249
# 56940
# 69237
# 79995
# 100478
# 112881
# 128073
# 145860
# 164072
# 181385
# 197761
# 213814
# 228612
# 240886
# 255460
# 268582
# 277282
# 295421
# 309368
# 324083
# 336663
#
# Disc length: 4786 seconds
#
#
# Revision: 0
# Processed by: cddbd v1.5.2PL0 Copyright (c) Steve Scherf et al.
# Submitted via: FreeRIP 2.51 
#
DISCID=5b12b017
DTITLE=Varios - Rancho Grande
DYEAR=1900
DGENRE=Banda
TTITLE0=Intro
TTITLE1=Lobo domesticado
TTITLE2=El gallo de oro
TTITLE3=Aunque me parta el corazon
TTITLE4=Derrumbe
TTITLE5=Tutankamona
TTITLE6=La abejita
TTITLE7=Mitotes
TTITLE8=Recuerdos Tristes
TTITLE9=Ojala
TTITLE10=Todavia Pienso en Ti
TTITLE11=Tiene espinas el Rosal
TTITLE12=Que culpa tengo yo
TTITLE13=Acto suicida
TTITLE14=Me estoy enamorando
TTITLE15=El autobus
TTITLE16=Eres toda una mujer
TTITLE17=Ay que chulos ojos
TTITLE18=Paraece que va a llover
TTITLE19=El baile del Cachete
TTITLE20=A veces
TTITLE21=Con Toda el alma
TTITLE22=Fruta Prohibida
EXTD=
EXTT0=
EXTT1=
EXTT2=
EXTT3=
EXTT4=
EXTT5=
EXTT6=
EXTT7=
EXTT8=
EXTT9=
EXTT10=
EXTT11=
EXTT12=
EXTT13=
EXTT14=
EXTT15=
EXTT16=
EXTT17=
EXTT18=
EXTT19=
EXTT20=
EXTT21=
EXTT22=
PLAYORDER=
